<?xml version="1.0" encoding="utf-8"?>
<!-- Generator: Adobe Illustrator 22.0.1, SVG Export Plug-In . SVG Version: 6.00 Build 0)  -->
<svg version="1.1" id="图层_1" xmlns="http://www.w3.org/2000/svg" xmlns:xlink="http://www.w3.org/1999/xlink" x="0px" y="0px"
	 viewBox="0 0 141.9845 45" style="enable-background:new 0 0 141.9845 45;" xml:space="preserve">
<style type="text/css">
	.st0{opacity:0.3;}
	.st1{fill:#FFFFFF;}
	.st2{fill:#F08D2C;}
	.st3{fill:#949393;}
	.st4{fill:#8DC21F;}
	.st5{fill:#DBDCDC;}
	.st6{fill:#9E9E9F;}
	.st7{fill:#F08D2C;stroke:#FFFFFF;stroke-width:0.75;stroke-miterlimit:10;}
	.st8{fill:#FAFAFA;}
	.st9{fill:#424242;}
	.st10{clip-path:url(#SVGID_4_);}
	.st11{clip-path:url(#SVGID_6_);}
	.st12{clip-path:url(#SVGID_8_);}
	.st13{fill:#616161;}
	.st14{fill:none;stroke:#BDBDBD;stroke-width:0.6651;stroke-miterlimit:10;}
	.st15{fill:url(#SVGID_9_);}
	.st16{fill:url(#SVGID_10_);}
	.st17{fill:url(#SVGID_11_);}
	.st18{fill:url(#SVGID_12_);}
	.st19{fill:#ECEFF1;}
	.st20{fill:#FFFFFF;stroke:#F08D2C;stroke-width:0.8;stroke-miterlimit:10;}
	.st21{fill:none;stroke:#F08D2C;stroke-width:1.26984;stroke-miterlimit:10;}
	.st22{fill:#FFFFFF;stroke:#F08D2C;stroke-miterlimit:10;}
	.st23{fill:#FFFFFF;stroke:#F08D2C;stroke-linecap:round;stroke-linejoin:round;stroke-miterlimit:10;}
	.st24{fill:#FFFFFF;stroke:#F08D2C;stroke-width:0.66667;stroke-miterlimit:10;}
	.st25{fill:#757575;}
	.st26{fill:#FFFFFF;stroke:#FFFFFF;stroke-width:1.33333;stroke-linecap:round;stroke-linejoin:round;stroke-miterlimit:10;}
	.st27{fill:none;stroke:#FFFFFF;stroke-width:1.33333;stroke-linecap:round;stroke-linejoin:round;stroke-miterlimit:10;}
	.st28{fill:url(#SVGID_13_);}
	.st29{fill:url(#SVGID_14_);}
	.st30{clip-path:url(#SVGID_16_);}
	.st31{opacity:0.31;}
	.st32{fill:url(#SVGID_17_);}
	.st33{fill:url(#SVGID_18_);}
</style>
<g>
	<g>
		<path class="st1" d="M42.29386,4.09495c0,0-0.01072-0.7754-0.42865-1.28208c-0.35341-0.42946-1.38876-1.93582-4.47683-2.80359
			c-0.55748-0.15675-0.5709,1.71155-0.09397,2.74406c0,0,1.0443,0.24203,2.23438,0.80029
			c1.02644,0.48138,1.36105,1.0343,1.72168,1.54543L42.29386,4.09495z"/>
		<path class="st1" d="M40.96053,5.30071c-0.30156-0.50407-0.98786-1.16045-1.37891-1.35008
			c-1.8702-0.90819-3.44336-1.24566-5.53992-1.64892c-1.68322-0.32328-3.27957-0.50847-3.50683-0.06927l-0.0018-0.00131
			c0,0-0.30513,0.60085,0.53555,1.67199l0.00402,0.00134c0.45817,0.67101,1.10781,1.11511,1.7512,2.06991
			c0.7633,1.13425,1.02188,1.81415,1.70826,2.51625c0.5333,0.54624,1.39147,1.22084,2.60482,1.31231
			c0.77673,0.05818,1.95345-0.01112,1.95345-0.01112l2.72657-2.50557C41.81693,7.28623,41.5118,6.21909,40.96053,5.30071z"/>
		<path class="st1" d="M46.15061,3.91998c-0.2085-0.25181-0.41794-0.52534-1.34582-0.73543
			c-0.93243-0.21139-1.77538,0.00134-2.57534,0.44764c-1.79057,0.99877-3.92924,3.9094-5.06656,5.04406l-0.68457,0.76738
			c-0.54495,1.41223-5.98016,4.39742-4.76139,3.72331c0.32615-0.18071,0.76864-0.32067,1.2411-0.42943l-0.00177-0.00493
			c4.03483-0.9086,4.14132,0.07416,7.83965-0.67456c1.7333-0.35042,2.77489-1.23148,3.40128-2.12455
			c0.42057-0.71054,0.75612-1.54013,0.9324-2.40607c0.13514-0.6675,0.34537-1.38117,0.52796-1.88345
			c0.13424-0.3166,0.30333-0.56931,0.47964-0.77051c0.31765-0.34415,0.79906-0.62574,1.10156-0.75096L47.38276,4.059
			C46.94433,3.68817,46.15061,3.91998,46.15061,3.91998z"/>
	</g>
	<g>
		<g>
			<g>
				<path class="st1" d="M54.41541,29.79485h3.89175c0.05336,2.8202-0.25584,10.57913-3.42798,14.71165h1.36413
					c2.02768-3.19528,2.73372-7.02765,3.03746-10.16326h9.03375c0.19255,0,0.35168,0.16601,0.35168,0.35624v8.39871v0.02825
					c0,0.16645-0.13744,0.30193-0.29829,0.30193v0.00989h-0.02985h-3.05013v1.06823h3.71458
					c0.40587,0,0.73766-0.33291,0.73766-0.73715v-0.33108v-9.09503v-0.38673l0,0l0,0c0-0.38136-0.30374-0.67613-0.67712-0.67613
					h-9.68824c0.10122-1.41637,0.14104-2.62638,0.20072-3.48553h10.81461v-1.07002H54.41541V29.79485z"/>
			</g>
		</g>
		<g>
			<g>
				<polygon class="st1" points="90.24128,37.89073 88.92908,33.90851 87.68384,33.90851 89.00003,37.89073 				"/>
			</g>
		</g>
		<g>
			<g>
				<polygon class="st1" points="91.17781,33.18394 89.8661,29.20352 88.61857,29.20352 89.93664,33.18394 				"/>
			</g>
		</g>
		<g>
			<g>
				<path class="st1" d="M85.56754,34.34324v-1.06285h-3.08446v-3.48553h3.08446v-1.07002h-7.47973v1.07002h3.09893v3.48553
					h-3.09893v1.06285h2.81234c-0.11935,1.44018-0.9926,4.16842-2.81234,6.3659v1.21401
					c1.66787-1.38946,2.63787-3.00546,3.21102-4.39582v6.97917h1.07758v-8.29507c0.72589,1.27148,1.78902,2.70129,3.38639,3.87809
					v-1.06013c-1.59737-1.5124-2.52262-3.46758-2.86028-4.68615H85.56754z"/>
			</g>
		</g>
		<g>
			<g>
				<polygon class="st1" points="94.71702,39.02446 93.39895,39.02446 93.39895,28.60909 92.32498,28.60909 92.32498,39.02446 
					86.21484,39.02446 86.21484,40.08951 92.32498,40.08951 92.32498,44.48809 93.39895,44.48809 93.39895,40.08951 
					94.71702,40.08951 				"/>
			</g>
		</g>
		<g>
			<g>
				<rect x="102.93264" y="30.77832" class="st1" width="4.87891" height="1.05386"/>
			</g>
		</g>
		<g>
			<g>
				<rect x="104.65658" y="28.60909" class="st1" width="1.06219" height="15.95973"/>
			</g>
		</g>
		<g>
			<g>
				<rect x="109.46319" y="30.04337" class="st1" width="5.30564" height="1.07812"/>
			</g>
		</g>
		<g>
			<g>
				<rect x="131.19681" y="28.57095" class="st1" width="1.12818" height="15.38952"/>
			</g>
		</g>
		<g>
			<g>
				<rect x="135.11021" y="28.57095" class="st1" width="1.13093" height="15.38952"/>
			</g>
		</g>
		<g>
			<g>
				<rect x="125.60458" y="43.40057" class="st1" width="16.26583" height="1.12205"/>
			</g>
		</g>
		<g>
			<g>
				<g>
					<path class="st1" d="M117.10567,30.05506h-6.35968v1.0642h5.60935c0.19346,0,0.35255,0.16287,0.35255,0.35583v11.68726v0.02736
						c0,0.16552-0.1383,0.30194-0.29922,0.30194v0.01034h-0.02982h-2.42996v1.06685h3.09622
						c0.40496,0,0.73585-0.33198,0.73585-0.73801v-0.32884V31.11925v-0.38852
						C117.78094,30.35121,117.4772,30.05506,117.10567,30.05506z"/>
				</g>
			</g>
		</g>
		<g>
			<polygon class="st1" points="107.70125,36.2742 102.01325,39.71536 102.01325,40.95184 107.70125,37.50937 			"/>
		</g>
		<g>
			<path class="st1" d="M102.37035,34.01305c0.96635-2.20961,1.1806-4.77855,1.22128-5.44255h-1.06535
				c-0.05196,0.74204-0.30329,3.39716-1.32755,5.44255H102.37035z"/>
		</g>
		<g>
			<path class="st1" d="M109.526,28.5705c-0.3521,1.21181-1.35736,4.43986-2.64104,6.50496h1.23216
				c1.32436-2.38323,2.27538-5.63726,2.51402-6.50496H109.526z"/>
		</g>
		<g>
			<path class="st1" d="M114.51205,30.80881c0,0.0215-0.00993,2.03868-0.69787,4.81804
				c-0.40231,1.62858-0.95195,3.19484-1.63901,4.65961c-0.72408,1.54834-1.60549,2.98714-2.61891,4.28236h1.34792
				c0.8597-1.18893,1.61813-2.47878,2.25909-3.84939c0.71687-1.53125,1.29095-3.17057,1.70768-4.87007
				c0.71146-2.89917,0.72142-4.95401,0.72142-5.04056H114.51205z"/>
		</g>
		<g>
			<path class="st1" d="M111.76296,30.72446c-0.00088,0.01612-0.28835,1.7345-1.00253,3.96871
				c-1.07757,3.38641-2.35402,5.56597-3.3186,6.86795h1.31713c1.47173-2.19211,2.44988-4.71574,3.03654-6.56191
				c0.73589-2.30564,1.02156-4.03025,1.03332-4.10385L111.76296,30.72446z"/>
		</g>
		<g>
			<path class="st1" d="M129.20978,40.47494c-0.32002-3.57933-1.48528-8.55796-1.83517-9.99228h-1.26652
				c0.19711,0.79455,1.51604,6.2371,1.86592,9.99228H129.20978z"/>
		</g>
		<g>
			<path class="st1" d="M139.27499,40.47494c1.51691-4.10198,2.15515-9.47142,2.21211-9.99228h-1.23756
				c-0.12386,0.99825-0.81993,6.2649-2.29167,9.99228H139.27499z"/>
		</g>
		<g>
			<g>
				<path class="st1" d="M91.61414,19.69235v-0.39513c0-2.61757-1.31416-4.17767-3.51559-4.17767
					c-2.19613,0-3.73033,1.81583-3.73033,4.41844c0,2.01404,1.01722,4.44034,4.03877,4.41619
					c0.83163-0.00567,1.78425-0.16358,2.51954-0.43069V22.7897c-0.65219,0.30179-1.70386,0.54475-2.42941,0.54475
					c-2.65389-0.00131-3.41129-2.18199-3.34676-3.6421C85.17422,19.69105,91.61414,19.69235,91.61414,19.69235z M85.15035,18.91956
					c0-1.52938,1.24429-3.18069,3.02242-3.18069c1.85325,0,2.72371,1.79343,2.72371,3.33199l-5.74612,0.00134V18.91956z"/>
			</g>
		</g>
		<g>
			<g>
				<polygon class="st1" points="57.24561,22.91316 53.98943,15.16449 53.12509,15.16449 56.66983,23.78989 57.7286,23.78989 
					61.36959,15.16449 60.55835,15.16449 				"/>
			</g>
		</g>
		<g>
			<g>
				<path class="st1" d="M73.50618,15.24115c-1.71709,0-2.4608,0.76756-2.81384,1.51844l0.00263-1.31493h-0.7821
					c0,0,0,1.28861,0,1.90305v6.52324h0.7821v-4.67543c0-1.73331,0.77861-3.33509,2.81121-3.33509
					c1.85058,0,2.1838,1.55263,2.1838,2.85617v5.15435h0.78034v-5.42852C76.47032,16.7793,75.85873,15.24115,73.50618,15.24115z"/>
			</g>
		</g>
		<g>
			<g>
				<rect x="78.31116" y="15.24115" class="st1" width="0.78037" height="8.62981"/>
			</g>
		</g>
		<g>
			<g>
				<polygon class="st1" points="83.30966,15.44467 79.09416,19.33458 79.0933,19.33458 79.0933,19.33544 79.0933,19.3372 
					79.09416,19.3372 83.3203,23.87096 84.21728,23.87096 80.01505,19.33458 80.01505,19.33458 84.21728,15.44467 				"/>
			</g>
		</g>
		<g>
			<g>
				<path class="st1" d="M66.20197,15.26608c-0.35793-0.10793-0.74852-0.13686-1.13649-0.13686
					c-0.87934,0-1.96635,0.32019-2.83155,0.7592l0.10961,0.66403c0.08923-0.04915,0.17496-0.09823,0.26249-0.14343
					c0.29427-0.15265,1.2443-0.63944,2.53807-0.64604c1.06231-0.00396,1.52627,0.46052,1.64561,0.5864
					c0.34112,0.38289,0.50284,0.96712,0.50284,1.78421v0.5184l0,0c-2.98444-0.0022-5.62069,0.30791-5.62069,2.99035
					c0,0.84124,0.37823,2.31183,2.80944,2.31183c0.82986,0,2.35169-0.65657,2.81347-1.61488v1.41006h0.77812
					c0,0,0-1.05214,0-1.67893v-3.85174C68.0729,16.64061,67.47812,15.64676,66.20197,15.26608z M67.29256,20.56251
					c0.00222,1.09435-1.05167,2.7351-2.75819,2.77194c-1.45821,0.03157-2.12544-0.63724-2.12544-1.7351
					c0-2.25742,2.77234-2.23245,4.41964-2.27365h0.464V20.56251z"/>
			</g>
		</g>
		<g>
			<g>
				<g>
					<path class="st1" d="M108.75584,19.70605v-0.38288c0-2.54913-1.27966-4.07015-3.42365-4.07015
						c-2.13868,0-3.63313,1.7688-3.63313,4.30259c0,1.96362,0.98981,4.32498,3.9336,4.30218
						c0.80865-0.00702,1.73836-0.16052,2.45373-0.41842v-0.7158c-0.63583,0.29301-1.66012,0.53027-2.36536,0.53027
						c-2.58406-0.00131-3.32378-2.12366-3.25926-3.54779C102.4847,19.70515,108.75584,19.70605,108.75584,19.70605z
						 M102.46176,18.95606c0-1.4912,1.21072-3.0991,2.94116-3.0991c1.80637,0,2.65297,1.74648,2.65297,3.2447l-5.59413,0.00086
						V18.95606z"/>
				</g>
			</g>
			<g>
				<g>
					<path class="st1" d="M141.9845,19.70605v-0.38288c0-2.54913-1.27924-4.07015-3.4232-4.07015
						c-2.13782,0-3.63397,1.7688-3.63397,4.30259c0,1.96362,0.99155,4.32498,3.93443,4.30218
						c0.80865-0.00702,1.73744-0.16052,2.45332-0.41842v-0.7158c-0.63455,0.29301-1.65884,0.53027-2.36491,0.53027
						c-2.58501-0.00131-3.32297-2.12366-3.26021-3.54779C135.71384,19.70515,141.9845,19.70605,141.9845,19.70605z
						 M135.68996,18.95606c0-1.4912,1.21162-3.0991,2.94292-3.0991c1.80464,0,2.65303,1.74648,2.65303,3.2447l-5.59595,0.00086
						V18.95606z"/>
				</g>
			</g>
			<g>
				<path class="st1" d="M96.2534,22.65911c0.24831,0.15877,0.51875,0.27768,0.81477,0.36273
					c0.29521,0.08375,0.63719,0.12458,1.02873,0.12458c0.25539,0,0.49664-0.03467,0.72288-0.10222
					c0.22802-0.068,0.42776-0.16974,0.59921-0.30877c0.17146-0.13727,0.30668-0.31447,0.40737-0.52762
					c0.09811-0.21363,0.14853-0.46753,0.14853-0.75965c0-0.26976-0.09457-0.50482-0.28104-0.70748
					c-0.18736-0.19997-0.42598-0.39166-0.71231-0.56931c-0.28724-0.17806-0.59387-0.35172-0.92179-0.52146
					c-0.32612-0.17108-0.63362-0.35922-0.91999-0.5658c-0.28633-0.20572-0.52491-0.43902-0.71137-0.69956
					c-0.18737-0.26092-0.28194-0.57412-0.28194-0.93772c0-0.33287,0.06802-0.63156,0.20327-0.89778
					c0.13608-0.26405,0.32345-0.49213,0.56203-0.68292c0.24042-0.18904,0.52055-0.33377,0.84403-0.432
					c0.32345-0.09913,0.6681-0.14869,1.03486-0.14869c0.20771,0,0.46133,0.01754,0.75913,0.05307
					c0.2996,0.03598,0.59214,0.10965,0.8802,0.2193l-0.13165,0.74733c-0.18473-0.10133-0.41271-0.17892-0.68848-0.23065
					c-0.27569-0.05136-0.55232-0.07591-0.83159-0.07591c-0.21478,0-0.42951,0.02325-0.64557,0.07061
					c-0.21609,0.04691-0.40872,0.12678-0.57932,0.23595c-0.17319,0.11275-0.31107,0.25879-0.41974,0.44036
					c-0.10784,0.18288-0.16173,0.40879-0.16173,0.67676c0,0.27674,0.09367,0.51489,0.281,0.71229
					c0.18913,0.19736,0.42508,0.38203,0.71231,0.55177c0.2872,0.1706,0.59391,0.33769,0.9213,0.49956
					c0.32657,0.16142,0.63411,0.35,0.9213,0.56405c0.28724,0.214,0.52405,0.46137,0.71232,0.74162
					c0.1865,0.2807,0.27927,0.62413,0.27927,1.02766c0,0.41928-0.08043,0.77764-0.24388,1.07454
					c-0.16439,0.29693-0.3783,0.53729-0.64072,0.72457c-0.2625,0.18594-0.5577,0.32104-0.88554,0.4092
					c-0.32521,0.08726-0.64956,0.13025-0.96951,0.13025c-0.40474,0-0.7662-0.03508-1.08171-0.10659
					c-0.31548-0.07143-0.58414-0.15436-0.8064-0.2495L96.2534,22.65911z"/>
			</g>
			<g>
				<path class="st1" d="M110.45531,15.42712h2.15282c0.74058,0,1.33537,0.16929,1.78252,0.50527
					c0.44633,0.33642,0.66991,0.88509,0.66991,1.64429c0,0.26883-0.04862,0.51355-0.14405,0.73028
					c-0.09634,0.21841-0.22715,0.40875-0.39327,0.57629c-0.16792,0.16578-0.36544,0.29999-0.59299,0.40397
					c-0.228,0.10215-0.47018,0.1706-0.72469,0.20173v0.02325c0.16792,0.0237,0.30579,0.06184,0.4127,0.11316
					c0.10783,0.05087,0.19928,0.12018,0.27575,0.20658c0.07601,0.08857,0.14316,0.18639,0.20325,0.29824
					c0.06054,0.11185,0.12194,0.2377,0.18559,0.38027l1.4237,3.20614h-0.90935l-1.20808-2.80351
					c-0.11932-0.27021-0.23511-0.47675-0.34823-0.62279c-0.11136-0.14738-0.228-0.25659-0.35172-0.32634
					c-0.12375-0.07192-0.25941-0.11402-0.40656-0.13201c-0.14846-0.01489-0.32167-0.02456-0.52139-0.02456h-0.68049v3.90921
					h-0.82542V15.42712z M111.28072,19.09599h0.87315c0.23859,0,0.48162-0.02545,0.72909-0.07722
					c0.24655-0.05087,0.47103-0.13552,0.66899-0.25484c0.20063-0.11883,0.36502-0.27585,0.49271-0.46929
					c0.12507-0.19299,0.19046-0.43245,0.19046-0.71796c0-0.33989-0.05571-0.60439-0.16792-0.79473
					c-0.11222-0.19038-0.26334-0.33332-0.45425-0.42894c-0.1909-0.09431-0.41538-0.15395-0.6699-0.17679
					c-0.25538-0.02411-0.5276-0.03635-0.81393-0.03635h-0.8484V19.09599z"/>
			</g>
			<g>
				<path class="st1" d="M120.39043,23.71659h-0.88551l-3.10901-8.28947h0.87268l2.69236,7.46842l2.78647-7.46842h0.81305
					L120.39043,23.71659z"/>
			</g>
			<g>
				<path class="st1" d="M125.03104,15.42712h0.82629v8.28947h-0.82629V15.42712z"/>
			</g>
			<g>
				<path class="st1" d="M133.75282,16.35301c-0.26073-0.1338-0.56477-0.22677-0.90942-0.2785
					c-0.34203-0.05136-0.66017-0.07591-0.95624-0.07591c-0.54176,0-1.02249,0.0873-1.44005,0.2667
					c-0.42023,0.17717-0.77286,0.42674-1.05919,0.74734c-0.28806,0.32108-0.50728,0.69915-0.65839,1.13336
					c-0.15199,0.43596-0.22716,0.91006-0.22716,1.4254c0,0.5224,0.07339,1.0031,0.22095,1.44346
					c0.14763,0.43902,0.36237,0.81533,0.64606,1.12716c0.28281,0.31227,0.63542,0.55834,1.05875,0.73685
					c0.42241,0.17765,0.90938,0.26756,1.45903,0.26756c0.13612,0,0.28723-0.00571,0.45517-0.01933
					c0.16792-0.01138,0.33408-0.02896,0.50107-0.05307c0.16838-0.02366,0.33232-0.05789,0.49136-0.10704
					c0.15996-0.04692,0.29958-0.10611,0.41806-0.17762l0.04944,0.71233c-0.1122,0.07013-0.25008,0.12846-0.41357,0.17235
					c-0.1644,0.04341-0.33495,0.0789-0.51524,0.10745c-0.1785,0.02545-0.35612,0.04781-0.53111,0.05833
					c-0.17587,0.01138-0.32703,0.01795-0.45517,0.01795c-0.66103,0-1.25182-0.10346-1.77101-0.30877
					c-0.51698-0.20572-0.95796-0.49646-1.32123-0.87277c-0.36237-0.37587-0.63896-0.82676-0.83163-1.35438
					c-0.19176-0.52456-0.28633-1.10925-0.28633-1.75047c0-0.62455,0.0981-1.20042,0.29344-1.72845
					c0.1953-0.52505,0.47456-0.97813,0.84306-1.35748c0.36679-0.38158,0.80956-0.67635,1.32834-0.88554
					c0.51784-0.20923,1.10023-0.31448,1.74536-0.31448c0.11935,0,0.26779,0.00571,0.44275,0.01754
					c0.175,0.01187,0.3553,0.02982,0.53827,0.05442c0.18379,0.02191,0.35611,0.05483,0.52051,0.09386
					c0.1635,0.03986,0.30138,0.08726,0.41357,0.14164L133.75282,16.35301z"/>
			</g>
		</g>
	</g>
	<g>
		<g>
			<path class="st1" d="M39.81587,27.44278c-0.03583-0.02863-5.97692-4.84906-7.86375-6.36713
				c-1.71115-1.37576-2.3509-3.18267-1.83396-5.12923H27.4269L15.68373,38.30153L3.9406,15.94642H1.33804l14.3457,27.31131
				L28.07537,19.6669c0.46313,1.19886,1.27505,2.29575,2.40854,3.20741c1.93052,1.55274,7.81043,6.32372,7.84713,6.35194
				c2.55714,2.1066,3.31048,4.85036,2.07039,7.52691c-1.32841,2.8686-4.93778,5.38862-9.25593,4.65561l-0.33781-0.06162
				l-0.41903,2.27664l0.35044,0.06374c0.64937,0.10973,1.28558,0.16179,1.90694,0.16179c4.62749,0,8.37497-2.89253,9.87293-6.12853
				C44.21088,34.07314,43.20152,30.23293,39.81587,27.44278z"/>
			<path class="st1" d="M15.68373,45L0,15.14098h4.43265l11.25109,21.41788l11.25116-21.41788h4.23595l-0.26832,1.0106
				c-0.4352,1.64038,0.10314,3.12758,1.56003,4.29863c1.74086,1.40051,6.84115,5.53742,7.84619,6.35194l0.02098,0.01732
				c3.6889,3.03917,4.78046,7.23934,2.92597,11.2379c-1.51894,3.28329-5.38963,6.5974-10.60965,6.5974
				c-0.67817,0-1.36597-0.05901-2.04328-0.17392l-1.15796-0.20953l0.71096-3.86148l1.1357,0.20605
				c0.44745,0.07632,0.90886,0.11581,1.36289,0.11581c3.44378,0,6.0472-2.23674,7.00941-4.31472
				c1.0916-2.35427,0.4335-4.68813-1.85189-6.57139l-0.17559-0.14227c-3.82355-3.10157-6.54583-5.30449-7.66273-6.20313
				c-0.76992-0.61891-1.40617-1.31422-1.90517-2.07842L15.68373,45z M31.33513,42.96151
				c0.43523,0.0546,0.87483,0.08237,1.31093,0.08237c4.4772,0,7.8742-2.93373,9.13527-5.65883
				c1.52856-3.29717,0.60041-6.7817-2.48371-9.32247l-0.01572-0.01217c-0.61613-0.50052-6.066-4.92109-7.841-6.34843
				c-1.66573-1.33978-2.45667-3.07037-2.28799-4.95012h-1.23399L15.68373,40.04424L3.44859,16.75187H2.676l13.00774,24.76402
				l12.5035-23.80466l0.6458,1.66725c0.42125,1.08995,1.14924,2.05547,2.16214,2.86957
				c1.11867,0.90084,3.84186,3.10504,7.66706,6.20791l0.18094,0.1457c2.82546,2.32781,3.68013,5.49924,2.29494,8.48843
				c-1.20951,2.61366-4.30239,5.25247-8.4833,5.25288c-0.39507,0-0.79357-0.02515-1.1912-0.07416L31.33513,42.96151z"/>
		</g>
	</g>
</g>
</svg>
