<?xml version="1.0" encoding="utf-8"?>
<!-- Generator: Adobe Illustrator 22.0.1, SVG Export Plug-In . SVG Version: 6.00 Build 0)  -->
<svg version="1.1" id="图层_1" xmlns="http://www.w3.org/2000/svg" xmlns:xlink="http://www.w3.org/1999/xlink" x="0px" y="0px"
	 viewBox="0 0 123.44722 40" style="enable-background:new 0 0 123.44722 40;" xml:space="preserve">
<style type="text/css">
	.st0{opacity:0.3;}
	.st1{fill:#FFFFFF;}
	.st2{fill:#F08D2C;}
	.st3{fill:#949393;}
	.st4{fill:#8DC21F;}
	.st5{fill:#DBDCDC;}
	.st6{fill:#9E9E9F;}
	.st7{fill:#F08D2C;stroke:#FFFFFF;stroke-width:0.75;stroke-miterlimit:10;}
	.st8{fill:#FAFAFA;}
	.st9{fill:#424242;}
	.st10{clip-path:url(#SVGID_4_);}
	.st11{clip-path:url(#SVGID_6_);}
	.st12{clip-path:url(#SVGID_8_);}
	.st13{fill:#616161;}
	.st14{fill:none;stroke:#BDBDBD;stroke-width:0.6651;stroke-miterlimit:10;}
	.st15{fill:url(#SVGID_9_);}
	.st16{fill:url(#SVGID_10_);}
	.st17{fill:url(#SVGID_11_);}
	.st18{fill:url(#SVGID_12_);}
	.st19{fill:#ECEFF1;}
	.st20{fill:#FFFFFF;stroke:#F08D2C;stroke-width:0.8;stroke-miterlimit:10;}
	.st21{fill:none;stroke:#F08D2C;stroke-width:1.26984;stroke-miterlimit:10;}
	.st22{fill:#FFFFFF;stroke:#F08D2C;stroke-miterlimit:10;}
	.st23{fill:#FFFFFF;stroke:#F08D2C;stroke-linecap:round;stroke-linejoin:round;stroke-miterlimit:10;}
	.st24{fill:#FFFFFF;stroke:#F08D2C;stroke-width:0.66667;stroke-miterlimit:10;}
	.st25{fill:#757575;}
	.st26{fill:#FFFFFF;stroke:#FFFFFF;stroke-width:1.33333;stroke-linecap:round;stroke-linejoin:round;stroke-miterlimit:10;}
	.st27{fill:none;stroke:#FFFFFF;stroke-width:1.33333;stroke-linecap:round;stroke-linejoin:round;stroke-miterlimit:10;}
	.st28{fill:url(#SVGID_13_);}
	.st29{fill:url(#SVGID_14_);}
	.st30{clip-path:url(#SVGID_16_);}
	.st31{opacity:0.31;}
	.st32{fill:url(#SVGID_17_);}
	.st33{fill:url(#SVGID_18_);}
</style>
<g>
	<g id="XMLID_84_">
		<path id="XMLID_89_" class="st1" d="M78.2738,5.99133h5.72145V2.92994h-5.86852V0h-3.08875v2.92994h-6.41931v3.06139h5.51586
			c-0.85061,2.15765-2.7183,6.42374-5.90794,11.46245l-0.09108,0.14379l2.6173,1.62665l0.09158-0.14425
			c1.77246-2.80039,3.15314-5.37048,4.1936-7.5087v11.03004h3.08875V12.28723c1.01075,1.69923,2.29274,3.67311,3.85317,5.73839
			l0.10331,0.13634l2.47315-1.83557l-0.10282-0.13588C80.90081,11.48928,78.80878,7.15571,78.2738,5.99133z"/>
		<path id="XMLID_88_" class="st1" d="M88.41943,5.93806V0h-3.08875v22.60131h3.08875V11.26003
			c1.15979,1.42298,2.68185,3.07182,4.57253,4.65968l0.13103,0.10982L95.12,13.69376l-0.131-0.10982
			C90.82062,10.08311,88.57594,6.2128,88.41943,5.93806z"/>
		<path id="XMLID_87_" class="st1" d="M97.11608,13.50113h11.36282c-0.63015,1.16601-1.88058,2.91087-3.88607,5.03073
			l-4.51667-3.50178l-1.90356,2.41113l6.6555,5.1601l0.96635-0.9199c4.14478-3.94658,6.08123-8.09513,6.08123-8.09513v-3.14654
			H97.11608V13.50113z"/>
		<rect id="XMLID_86_" x="103.29779" y="6.49199" class="st1" width="3.08876" height="3.25424"/>
		<path id="XMLID_85_" class="st1" d="M121.10998,9.39982c-0.28973-0.21405-0.6048-0.40736-0.93819-0.57604l2.31775-5.69098
			l0.0122-2.84364h-9.8175v6.38653c-3.14819-2.71664-6.75703-6.58235-6.79214-6.62032L105.84092,0l-2.17218,0.00301
			l-0.05116,0.05514c-0.03616,0.0391-3.74847,4.03013-7.08516,6.72884l-0.13288,0.10747l1.95337,2.3716l0.13288-0.1075
			c2.40881-1.9484,4.91485-4.44214,6.26952-5.83615c1.34245,1.39006,3.80574,3.87448,6.06949,5.80939l0.13005,0.11119
			l1.72938-1.98704V22.5019h3.08875V3.35054h3.29628l-2.40739,5.91271l-0.03804,1.77462l1.29316,0.20148
			c0.07793,0.01627,0.77805,0.17169,1.40867,0.66209c0.79401,0.617,1.12411,1.50477,1.00907,2.71498
			c-0.11551,1.21722-0.50617,2.11522-1.12975,2.59728c-0.65221,0.50389-1.50868,0.49971-2.11301,0.40897l-0.1695-0.02604
			l-0.46955,3.02579l0.1695,0.02558c1.72562,0.26289,3.27705-0.08839,4.48239-1.02039
			c0.91424-0.70631,2.05666-2.09892,2.30599-4.72502C123.6897,11.96425,122.31344,10.28828,121.10998,9.39982z"/>
	</g>
	<path id="XMLID_81_" class="st1" d="M0.26323,22.39142V10.21195l0.01055-0.10885c0.21225-4.07456,3.60671-7.26619,7.72765-7.26619
		c4.26684,0,7.73808,3.43983,7.73808,7.66792s-3.47123,7.66779-7.73808,7.66779c-1.46832,0-2.89869-0.41119-4.13654-1.18899
		l-0.39522-0.2483v5.65609H0.26323z M8.00144,6.01424c-2.49881,0-4.53176,2.01448-4.53176,4.49059s2.03294,4.49059,4.53176,4.49059
		s4.53176-2.01448,4.53176-4.49059S10.50025,6.01424,8.00144,6.01424z"/>
	<path id="XMLID_80_" class="st1" d="M25.21829,22.39142c-4.26836,0-7.74099-3.44095-7.74099-7.67055V6.08307h3.20645v8.89284
		h0.00994c0.13383,2.35806,2.11214,4.23558,4.5246,4.23558c2.49881,0,4.53176-2.0145,4.53176-4.49062V8.48306l0.00275-0.45801
		V6.08307h3.20645v8.63781C32.95926,18.95047,29.48666,22.39142,25.21829,22.39142z"/>
	<path id="XMLID_79_" class="st1" d="M58.41002,22.39142v-8.53128h-0.00991c-0.13383-2.35806-2.11214-4.23556-4.5246-4.23556
		c-2.49881,0-4.53176,2.0145-4.53176,4.49059v6.23785l-0.00288,0.45789v1.58051h-3.20635v-8.27625
		c0-4.22957,3.47262-7.67065,7.74099-7.67065s7.74086,3.44108,7.74086,7.67065v8.27625H58.41002z"/>
	<rect id="XMLID_78_" x="40.70626" y="9.79344" class="st1" width="3.20645" height="12.59798"/>
	<rect id="XMLID_77_" x="35.28779" y="6.08307" class="st1" width="3.20645" height="16.30835"/>
	<g>
		<g>
			<path class="st1" d="M3.65528,32.58197c-0.01951,0.63736-0.04871,1.30394-0.11693,1.97023h4.32782c0,0,0,0.25122-0.00968,0.34776
				c-0.17547,3.11032-0.33143,4.25958-0.71157,4.6652c-0.22418,0.24148-0.45819,0.31882-0.8285,0.34776
				c-0.37046,0.02893-1.043,0.00974-1.71555-0.03867c-0.00983-0.21226-0.10725-0.50215-0.25352-0.70496
				c0.73108,0.07734,1.43297,0.07734,1.69603,0.07734c0.22433,0,0.34126-0.01948,0.45819-0.12575
				c0.2924-0.26067,0.45819-1.32314,0.59464-3.87315H3.45061C3.16789,37.1409,2.44663,38.93754,0.52642,40
				C0.40948,39.80664,0.19498,39.5749,0,39.43969c2.70001-1.41995,2.8366-4.39478,2.89499-6.85772h-2.6221v-0.69551h8.48031v0.69551
				H3.65528z"/>
			<path class="st1" d="M22.46168,36.92835c-0.16579-0.31854-0.57513-0.94645-0.90656-1.43915v4.47213h-0.71157v-4.26932
				c-0.39965,0.96592-0.90656,1.92211-1.41331,2.52108c-0.06822-0.19336-0.24369-0.48296-0.36077-0.6471
				c0.61415-0.68577,1.29653-1.92211,1.67667-3.03298h-1.54008v-0.67603h1.6375v-1.45863
				c-0.44836,0.08708-0.90656,0.16414-1.33541,0.22229c-0.03902-0.15469-0.13644-0.40591-0.2145-0.56031
				c1.09186-0.17388,2.36872-0.45403,3.09981-0.77285l0.43854,0.57005c-0.36063,0.14495-0.80899,0.28015-1.27687,0.38643v1.61303
				h1.43283v0.67603h-1.43283v0.17388c0.30223,0.33802,1.14042,1.40047,1.34509,1.66144L22.46168,36.92835z M26.86741,37.44024
				v2.52109h-0.71157v-2.40508l-3.17757,0.52164l-0.11693-0.68577l3.2945-0.52164v-5.7182h0.71157v5.60219l1.14057-0.17388
				l0.10711,0.65684L26.86741,37.44024z M24.98622,36.15578c-0.35094-0.4251-1.1014-1.02379-1.71555-1.41021l0.44836-0.4251
				c0.62384,0.37669,1.38412,0.94673,1.74475,1.3618L24.98622,36.15578z M25.20072,33.60576
				c-0.30223-0.40562-0.97478-0.97566-1.5499-1.37154l0.45819-0.41536c0.58481,0.36695,1.26718,0.91751,1.58879,1.32313
				L25.20072,33.60576z"/>
			<path class="st1" d="M40.71248,36.46487v3.51566h-0.67255v-3.30311c-0.57513,0.17359-1.13074,0.34747-1.6083,0.49242
				l-0.19498-0.68577c0.49707-0.13521,1.12091-0.29935,1.80328-0.51189v-2.15385h-0.88704
				c-0.11693,0.54082-0.25338,1.03353-0.42885,1.42941c-0.12676-0.0868-0.39965-0.26067-0.55561-0.31882
				c0.37046-0.82098,0.55561-2.03784,0.67255-3.21631l0.63366,0.10628c-0.04885,0.43455-0.11708,0.87884-0.1853,1.30394h0.7506
				v-1.96078h0.67255v1.96078h1.00397v0.69551h-1.00397v1.97023l1.13074-0.34747l0.09742,0.63736L40.71248,36.46487z
				 M47.08728,32.77505c0,0,0,0.27041-0.00969,0.35749c-0.2145,4.37531-0.42885,5.8726-0.81882,6.35556
				c-0.18515,0.25093-0.38014,0.33802-0.67254,0.36695c-0.26321,0.03867-0.68238,0.02893-1.11123,0
				c-0.00969-0.21255-0.07791-0.51189-0.20467-0.70496c0.43868,0.03838,0.8285,0.04813,1.02349,0.04813
				c0.15596,0,0.25338-0.03867,0.36063-0.16414c0.31192-0.33802,0.52641-1.76771,0.72126-5.59245h-0.46788
				c-0.48739,2.53054-1.55959,5.09975-3.17757,6.37476c-0.13645-0.1544-0.38997-0.32828-0.60432-0.43455
				c1.59847-1.1398,2.6513-3.51594,3.15806-5.94021h-0.79931c-0.43853,1.6517-1.33526,3.45779-2.39777,4.37531
				c-0.13645-0.14466-0.37046-0.30908-0.57513-0.41536c1.03317-0.8015,1.9007-2.41453,2.34907-3.95995h-0.83819
				c-0.32175,0.70497-0.69206,1.34261-1.11123,1.83503c-0.11693-0.11573-0.40934-0.31854-0.55561-0.41536
				c0.79931-0.85965,1.38412-2.25039,1.70586-3.70901l0.66272,0.13521c-0.11693,0.51218-0.26306,1.01434-0.43853,1.48756h3.11917
				V32.7653L47.08728,32.77505z"/>
			<path class="st1" d="M66.10803,38.76366v0.70496h-8.51905v-0.70496h2.70984v-7.48563h0.72126v7.48563h1.64703v-7.47618h0.72155
				v7.47618H66.10803z M59.11937,36.94783c-0.23386-0.8502-0.81896-2.2988-1.32572-3.39047l0.67269-0.20281
				c0.51659,1.0722,1.11123,2.48241,1.37429,3.32287L59.11937,36.94783z M65.91319,33.7023
				c-0.46802,1.10113-1.12105,2.43401-1.67667,3.32259l-0.59464-0.31853c0.53625-0.86939,1.23813-2.26041,1.61827-3.32287
				L65.91319,33.7023z"/>
			<path class="st1" d="M85.24573,38.23229v0.78231h-8.58742v-0.78231H85.24573z M84.42706,32.5433v0.76311h-6.95007V32.5433
				H84.42706z"/>
			<path class="st1" d="M104.43227,36.83181h-3.99654v2.1444c0,0.51189-0.15582,0.72445-0.51659,0.84017
				c-0.36048,0.11601-0.98431,0.1352-2.00795,0.12547c-0.0584-0.20281-0.19484-0.52135-0.31192-0.7147
				c0.81897,0.02893,1.57925,0.01948,1.80328,0.00974c0.2145,0,0.30238-0.0676,0.30238-0.27041v-2.13466h-4.00637v-0.70496h4.00637
				v-1.5649h-3.35333v-0.68577h3.35333v-1.48756c-1.07249,0.11601-2.17389,0.18362-3.17786,0.23203
				c-0.0292-0.19336-0.11679-0.47351-0.18501-0.63765c2.30022-0.10627,5.12713-0.35721,6.58901-0.81124l0.54607,0.56976
				c-0.8285,0.25122-1.89116,0.43484-3.04141,0.57004v1.56461h3.45075v0.68577h-3.45075v1.5649h3.99654V36.83181z"/>
			<path class="st1" d="M116.3765,34.40755c0,1.58409-0.14628,3.94075-1.08203,5.55378
				c-0.13644-0.11602-0.45819-0.28989-0.6432-0.3575c0.9161-1.52594,1.00397-3.68953,1.00397-5.19628v-2.2988h3.27499
				c-0.09742-0.25122-0.20467-0.54111-0.31192-0.76311l0.69206-0.19336c0.15611,0.28989,0.31191,0.66658,0.41917,0.95647h3.14837
				v2.26012h-6.50141V34.40755z M119.24215,36.25232c-0.03903,0.29935-0.07806,0.58924-0.12662,0.85965h2.98273v0.00974h0.51659
				c0,0-0.00983,0.19307-0.0292,0.27987c-0.13644,1.41021-0.25352,1.99945-0.51659,2.23119
				c-0.17547,0.16442-0.3706,0.22229-0.66286,0.24148c-0.2729,0.00974-0.79931,0.00974-1.34538-0.02893
				c-0.01937-0.18333-0.09742-0.42481-0.20467-0.58924c0.53624,0.04841,1.0722,0.05815,1.2575,0.05815
				c0.19484,0,0.29255-0.01948,0.37031-0.08708c0.15611-0.13521,0.26335-0.56002,0.37061-1.53568h-2.90468
				c-0.32175,1.01405-0.96524,1.7869-2.29067,2.26987c-0.07806-0.16414-0.2729-0.41536-0.41917-0.54083
				c1.7154-0.58924,2.13457-1.68063,2.28084-3.16819h-1.84231v-0.59898h3.09981c-0.12691-0.27987-0.3706-0.7147-0.57527-1.03353
				l0.6143-0.21226c0.23387,0.32827,0.49693,0.75337,0.62384,1.03353l-0.52642,0.21226h3.29465v0.59898H119.24215z
				 M116.3765,32.72692v1.02379h5.78999v-1.02379H116.3765z"/>
		</g>
	</g>
	<g id="XMLID_69_">
		<g>
			<path id="XMLID_73_" class="st1" d="M45.555,2.45079c0,0-0.00612-0.44207-0.24481-0.73095
				c-0.20183-0.24486-0.79311-1.10368-2.55664-1.59842c-0.31837-0.08936-0.32603,0.97581-0.05369,1.56447
				c0,0,0.59641,0.138,1.27605,0.45628c0.58616,0.27444,0.77726,0.58969,0.9832,0.88109L45.555,2.45079z"/>
			<path id="XMLID_72_" class="st1" d="M44.79354,3.13823c-0.17223-0.28737-0.56416-0.66161-0.78748-0.76971
				c-1.06806-0.51779-1.96646-0.71019-3.16378-0.9401c-0.96125-0.18431-1.87291-0.2899-2.0027-0.0395l-0.00103-0.00074
				c0,0-0.17426,0.34256,0.30584,0.95326L39.1467,2.3422c0.26164,0.38255,0.63264,0.63575,1.00006,1.18011
				c0.43594,0.64669,0.58359,1.03431,0.97556,1.43459c0.30457,0.31145,0.79466,0.69606,1.48758,0.74822
				c0.44358,0.03315,1.1156-0.00635,1.1156-0.00635l1.55712-1.42852C45.28262,4.27024,45.10836,3.66184,44.79354,3.13823z"/>
			<path id="XMLID_71_" class="st1" d="M47.75752,2.35105c-0.11908-0.14356-0.23868-0.29951-0.76859-0.4193
				c-0.5325-0.12053-1.01389,0.00077-1.47074,0.25521c-1.02256,0.56944-2.24394,2.22889-2.89344,2.87578l-0.39095,0.43751
				c-0.31121,0.80516-3.41518,2.50713-2.71917,2.12279C39.7009,7.52,39.95361,7.4402,40.22341,7.3782l-0.001-0.00281
				c2.30424-0.51802,2.36506,0.04228,4.47712-0.38459c0.98987-0.19979,1.58471-0.70211,1.94243-1.21128
				c0.24018-0.40509,0.43182-0.87808,0.53247-1.37177c0.07718-0.38056,0.19725-0.78746,0.30151-1.07382
				c0.07667-0.18051,0.17323-0.32458,0.27392-0.43929c0.18142-0.19622,0.45634-0.35677,0.62909-0.42815l0.08223-0.03619
				C48.2108,2.21889,47.75752,2.35105,47.75752,2.35105z"/>
		</g>
	</g>
</g>
</svg>
