<?xml version="1.0" encoding="utf-8"?>
<!-- Generator: Adobe Illustrator 22.0.1, SVG Export Plug-In . SVG Version: 6.00 Build 0)  -->
<svg version="1.1" id="图层_1" xmlns="http://www.w3.org/2000/svg" xmlns:xlink="http://www.w3.org/1999/xlink" x="0px" y="0px"
	 viewBox="0 0 550 56.10352" style="enable-background:new 0 0 550 56.10352;" xml:space="preserve">
<style type="text/css">
	.st0{fill:#FFFFFF;}
	.st1{fill:#FAFAFA;}
	.st2{fill:none;}
	.st3{fill:#F08D2C;}
	.st4{fill:#949393;}
	.st5{fill:#8DC21F;}
	.st6{fill:#424242;}
	.st7{fill:none;stroke:#D1D1D1;stroke-miterlimit:10;}
	.st8{clip-path:url(#SVGID_2_);}
	.st9{fill:#61BD9D;}
	.st10{fill:none;stroke:#20967F;stroke-width:4.08653;stroke-miterlimit:10;}
	.st11{fill:none;stroke:#20967F;stroke-width:19.07045;stroke-miterlimit:10;}
	.st12{fill:#28A085;}
	.st13{fill:none;stroke:#D2348C;stroke-width:0.34054;stroke-miterlimit:10;}
	.st14{fill:none;stroke:#20967F;stroke-width:2.72435;stroke-miterlimit:10;}
	.st15{fill:none;stroke:#20967F;stroke-width:1.36218;stroke-miterlimit:10;}
	.st16{fill:none;stroke:#20967F;stroke-width:5.4487;stroke-miterlimit:10;}
	.st17{fill:none;stroke:#20967F;stroke-width:6.81088;stroke-miterlimit:10;}
	.st18{fill:none;stroke:#1F8B74;stroke-width:2.72435;stroke-miterlimit:10;}
	.st19{fill:#929526;}
	.st20{fill:#F8B92C;}
	.st21{fill:#78383D;}
	.st22{fill:#A85E22;}
	.st23{fill:#A8A29C;}
	.st24{fill:#585B65;}
	.st25{fill:#BFC2B6;}
	.st26{fill:#A87E62;}
	.st27{fill:#C25A20;}
	.st28{fill:#BB3C1D;}
	.st29{fill:#B5B7BF;}
	.st30{fill:#6B543A;}
	.st31{fill:#D6A025;}
	.st32{fill:#9E9E9F;}
	.st33{fill:#965C0F;}
	.st34{fill:#FDEFD5;}
	.st35{fill:#819D95;}
	.st36{fill:#F08A19;}
	.st37{clip-path:url(#SVGID_4_);}
	.st38{fill:#717071;}
	.st39{opacity:0.43;fill:#F6B363;}
	.st40{fill:#FADEB0;}
	.st41{fill:#7A7673;}
	.st42{fill:#8D494C;}
	.st43{fill:#7CA07A;}
	.st44{fill:#916E52;}
	.st45{fill:#F2F1EF;}
	.st46{fill:#FAD6A4;}
	.st47{fill:#FDEBC7;}
	.st48{fill:#CDC6C0;}
	.st49{fill:#8AC576;}
	.st50{fill:#F6AF2C;}
	.st51{fill:#57B559;}
	.st52{fill:#DE8967;}
	.st53{fill:#DFA98D;}
	.st54{fill:#DA6600;}
	.st55{fill:none;stroke:#D76218;stroke-width:0.36122;stroke-miterlimit:10;}
	.st56{fill:#D76218;}
	.st57{fill:#598556;}
	.st58{fill:none;stroke:#8D494C;stroke-width:3.45712;stroke-miterlimit:10;}
	.st59{opacity:0.39;fill:#231815;}
	.st60{fill:#7CA07A;stroke:#8D494C;stroke-width:0.86428;stroke-miterlimit:10;}
	.st61{fill:#888888;}
	.st62{fill:#8D494C;stroke:#FDEFD5;stroke-width:0.86428;stroke-miterlimit:10;}
	.st63{fill:#D8C099;}
	.st64{fill:none;stroke:#D76218;stroke-width:0.88434;stroke-miterlimit:10;}
	.st65{fill:#1B836E;}
	.st66{fill:#B86C1D;}
	.st67{fill:#971E33;}
	.st68{fill:#4C2D34;}
	.st69{fill:#F8CAA7;}
	.st70{fill:#EDA078;}
	.st71{fill:#231815;}
	.st72{fill:#949197;}
	.st73{fill:#EB672F;}
	.st74{fill:#364531;}
	.st75{fill:#73251B;}
	.st76{fill:none;stroke:#FDEFD5;stroke-width:0.14593;stroke-miterlimit:10;}
	.st77{fill:#6D6B73;}
	.st78{fill:#C16F0E;}
	.st79{fill:#C97457;}
	.st80{fill:#E2E1E1;}
	.st81{fill:#FCE2C1;}
	.st82{fill:#D7D4B8;}
	.st83{fill:none;stroke:#BB3C1D;stroke-width:1.92856;stroke-linecap:round;stroke-linejoin:round;stroke-miterlimit:10;}
	.st84{fill:#F08E59;}
	.st85{fill:#D8D4B9;}
	.st86{fill:#EF8C7F;}
	.st87{fill:#794C87;}
	.st88{fill:none;stroke:#D8D4B9;stroke-width:0.06823;stroke-miterlimit:10;}
	.st89{fill:none;stroke:#EDA615;stroke-width:1.71139;stroke-linecap:round;stroke-linejoin:round;stroke-miterlimit:10;}
	.st90{fill:#BE701F;}
	.st91{clip-path:url(#SVGID_6_);}
	.st92{fill:#DBDCDC;}
	.st93{clip-path:url(#SVGID_8_);}
	.st94{fill:#58B44B;}
	.st95{fill:#E54C28;}
	.st96{fill:#EC712B;}
	.st97{fill:#E9E5E6;}
	.st98{fill:#4C2D34;stroke:#E9E5E6;stroke-width:0.95383;stroke-miterlimit:10;}
	.st99{fill:none;stroke:#E9E5E6;stroke-width:0.95383;stroke-miterlimit:10;}
	.st100{fill:none;stroke:#E9E5E6;stroke-width:1.90765;stroke-miterlimit:10;}
	.st101{fill:#F8B92C;stroke:#8D494C;stroke-width:1.90765;stroke-miterlimit:10;}
	.st102{fill:none;stroke:#8D494C;stroke-width:1.90765;stroke-miterlimit:10;}
	.st103{fill:#653A1B;stroke:#8D5C35;stroke-width:6.67679;stroke-miterlimit:10;}
	.st104{fill:none;stroke:#8D5C35;stroke-width:6.67679;stroke-miterlimit:10;}
	.st105{fill:none;stroke:#8D5C35;stroke-width:4.76914;stroke-miterlimit:10;}
	.st106{fill:none;stroke:#653A1B;stroke-width:0.95383;stroke-miterlimit:10;}
	.st107{fill:#BBBBBB;}
	.st108{fill:#CDCBC6;}
	.st109{fill:#7D7975;}
	.st110{fill:#F9CC90;}
	.st111{fill:#A6A76D;}
	.st112{fill:#563651;}
	.st113{fill:none;stroke:#FFFFFF;stroke-width:0.21274;stroke-miterlimit:10;}
	.st114{fill:none;stroke:#FFFFFF;stroke-width:0.34523;stroke-miterlimit:10;}
	.st115{fill:none;stroke:#BB3C1D;stroke-width:8.75517;stroke-linecap:round;stroke-linejoin:round;stroke-miterlimit:10;}
	.st116{fill:#D2D2D3;}
	.st117{fill:#F9CEAC;}
	.st118{fill:none;stroke:#FFFFFF;stroke-width:0.32667;stroke-miterlimit:10;}
	.st119{fill:none;stroke:#8F2B27;stroke-width:0.85899;stroke-miterlimit:10;}
	.st120{fill:#0A355B;}
	.st121{fill:#8F2B27;}
	.st122{fill:#8D5C35;}
	.st123{fill:#AB7A4B;}
	.st124{fill:none;stroke:#FDEFD5;stroke-width:2.75804;stroke-linecap:round;stroke-linejoin:round;stroke-miterlimit:10;}
	.st125{fill:none;stroke:#FDEFD5;stroke-width:2.75804;stroke-linejoin:round;stroke-miterlimit:10;}
	.st126{fill:none;stroke:#3E3A39;stroke-width:1.03426;stroke-miterlimit:10;}
	.st127{fill:none;stroke:#3E3A39;stroke-width:1.03426;stroke-linejoin:round;stroke-miterlimit:10;}
	.st128{fill:#64381A;}
	.st129{fill:#3C3E3D;}
	.st130{fill:#222222;}
	.st131{fill:#323333;}
	.st132{fill:#E8E0E2;}
	.st133{fill:#FACA70;}
	.st134{opacity:0.4;fill:#95CDA0;}
	.st135{opacity:0.42;}
	.st136{fill:#20967F;}
	.st137{fill:#AA833F;}
	.st138{fill:#DACBAD;}
	.st139{fill:#B4B4B5;}
	.st140{fill:#5D2A2E;}
	.st141{fill:#4E3F4B;}
	.st142{opacity:0.6;}
	.st143{fill:#B6D785;}
	.st144{fill:#6B6352;}
	.st145{fill:none;stroke:#8D494C;stroke-width:1.57701;stroke-miterlimit:10;}
	.st146{fill:none;stroke:#8D5C35;stroke-width:1.43613;stroke-miterlimit:10;}
	.st147{fill:none;stroke:#8D5C35;stroke-width:1.77198;stroke-miterlimit:10;}
	.st148{fill:#3E3A39;}
	.st149{fill:#B7282E;}
	.st150{fill:#15738F;}
	.st151{fill:#43220F;}
	.st152{fill:none;stroke:#BB3C1D;stroke-width:1.25294;stroke-miterlimit:10;}
	.st153{fill:#F8EEE2;}
	.st154{fill:#EF821E;}
	.st155{clip-path:url(#SVGID_10_);}
	.st156{fill:#028070;}
	.st157{clip-path:url(#SVGID_12_);}
	.st158{fill:#154122;}
	.st159{opacity:0.24;fill:#FFFFFF;}
	.st160{opacity:0.31;fill:#FFFFFF;}
	.st161{fill:none;stroke:#61BD9D;stroke-width:1.25294;stroke-miterlimit:10;}
	.st162{fill:#F8C492;}
	.st163{fill:none;stroke:#4C2D34;stroke-width:2.12413;stroke-linecap:round;stroke-miterlimit:10;}
	.st164{fill:none;stroke:#4C2D34;stroke-width:2.51046;stroke-linecap:round;stroke-miterlimit:10;}
	.st165{fill:#962C0E;}
	.st166{clip-path:url(#SVGID_16_);}
	.st167{fill:#E95513;}
	.st168{fill:none;stroke:#4C2D34;stroke-width:2.05559;stroke-linecap:round;stroke-miterlimit:10;}
	.st169{fill:none;stroke:#FFFFFF;stroke-width:4.08653;stroke-miterlimit:10;}
	.st170{clip-path:url(#SVGID_18_);}
	.st171{clip-path:url(#SVGID_20_);}
	.st172{clip-path:url(#SVGID_22_);}
	.st173{fill:#616161;}
	.st174{fill:none;stroke:#BDBDBD;stroke-miterlimit:10;}
	.st175{fill:#FFFFFF;stroke:#F08D2C;stroke-width:1.2;stroke-miterlimit:10;}
	.st176{fill:none;stroke:#F08D2C;stroke-width:1.90476;stroke-miterlimit:10;}
	.st177{fill:#FFFFFF;stroke:#F08D2C;stroke-width:1.5;stroke-miterlimit:10;}
	.st178{fill:#FFFFFF;stroke:#F08D2C;stroke-width:1.5;stroke-linecap:round;stroke-linejoin:round;stroke-miterlimit:10;}
	.st179{fill:#FFFFFF;stroke:#F08D2C;stroke-miterlimit:10;}
	.st180{fill:#757575;}
	.st181{fill:none;stroke:#FFFFFF;stroke-width:2.91432;stroke-linecap:round;stroke-linejoin:round;stroke-miterlimit:10;}
	.st182{fill:#FFFFFF;stroke:#FFFFFF;stroke-width:2;stroke-linecap:round;stroke-linejoin:round;stroke-miterlimit:10;}
	.st183{fill:none;stroke:#FFFFFF;stroke-width:2;stroke-linecap:round;stroke-linejoin:round;stroke-miterlimit:10;}
	.st184{fill:url(#SVGID_23_);}
	.st185{fill:url(#SVGID_24_);}
	.st186{fill:url(#SVGID_25_);}
	.st187{fill:url(#SVGID_26_);}
	.st188{fill:url(#SVGID_27_);}
	.st189{fill:url(#SVGID_28_);}
	.st190{fill:url(#SVGID_29_);}
	.st191{fill:url(#SVGID_30_);}
	.st192{fill:url(#SVGID_31_);}
	.st193{fill:url(#SVGID_32_);}
	.st194{fill:url(#SVGID_33_);}
	.st195{fill:url(#SVGID_34_);}
	.st196{clip-path:url(#SVGID_36_);}
	.st197{opacity:0.31;}
	.st198{fill:#ECEFF1;}
	.st199{fill:none;stroke:#BDBDBD;stroke-width:0.5;stroke-miterlimit:10;}
	.st200{fill:#EF7007;}
	.st201{fill:#FCB17A;}
	.st202{fill:#FFCC80;}
	.st203{fill:url(#SVGID_37_);}
	.st204{fill:url(#SVGID_38_);}
</style>
<g>
	<g>
		<g>
			<path class="st0" d="M180.88086,8.22754h7.08008v40.77148h-7.08008V8.22754z M187.32617,3.39355l6.20117-2.24609
				c1.82275,3.02734,3.62939,6.44531,5.41992,10.25391l-6.78711,2.44141C190.43457,9.83887,188.82324,6.35645,187.32617,3.39355z
				 M225.02148,40.1123c0,2.86523-0.59033,4.99609-1.77002,6.39648c-1.18018,1.39941-2.85254,2.22168-5.01709,2.46582
				c-2.16504,0.24414-6.13623,0.36621-11.91406,0.36621c-0.45605-2.31152-1.05811-4.7207-1.80664-7.22656
				c2.73438,0.16309,5.59863,0.24414,8.59375,0.24414c3.22266,0,4.83398-1.39941,4.83398-4.19922V11.1084H200.2168V4.56543h24.80469
				V40.1123z"/>
			<path class="st0" d="M239.37695,23.55957c0,12.28906-1.67676,21.04492-5.0293,26.26953
				c-1.75781-1.66016-3.646-3.23926-5.66406-4.73633c2.83203-4.94727,4.19922-12.41797,4.10156-22.41211V6.56738h18.96973
				c-0.48828-1.1875-0.98486-2.34375-1.48926-3.4668l7.95898-1.85547c0.71582,1.70898,1.43213,3.4834,2.14844,5.32227h16.45508
				v6.00586h-37.45117V23.55957z M252.56055,13.30566h6.73828v4.05273h16.65039v5.85938h-16.65039v4.44336h14.55078v21.58203
				h-6.5918v-3.07617h-18.4082v3.07617h-6.5918V27.66113h10.30273V13.30566z M267.25781,33.52051h-18.4082v6.78711h18.4082V33.52051
				z"/>
			<path class="st0" d="M306.95508,1.29395h6.49414V11.4502l11.37695-2.63672l-0.21973,9.2041
				c-0.19531,7.50391-0.50049,11.71094-0.91553,12.62207c-0.41504,0.91211-0.96436,1.68066-1.64795,2.30762
				c-0.68359,0.62598-2.92969,1.11035-6.73828,1.45215c-0.45605-2.14844-0.99316-4.3125-1.61133-6.49414
				c0.71582,0.06543,1.35889,0.09766,1.92871,0.09766c0.99268,0,1.63965-0.08496,1.94092-0.25684
				c0.30078-0.16992,0.50439-0.41406,0.61035-0.73242c0.10547-0.31641,0.19922-1.33789,0.28076-3.06348
				c0.08105-1.72461,0.12207-4.21484,0.12207-7.4707l-5.12695,1.26953v21.97266h-6.49414V19.36035l-4.54102,1.12305v19.33594
				c0,1.82324,1.07422,2.73438,3.22266,2.73438h9.57031c1.2041,0,2.19727-0.16211,2.97852-0.48828
				c0.78125-0.3252,1.29395-0.88672,1.53809-1.68457c0.24414-0.79688,0.57764-2.72559,1.00098-5.78613
				c2.63672,1.13965,4.83398,2.05078,6.5918,2.73438c-0.87891,4.00391-1.63184,6.54297-2.2583,7.61719
				c-0.62695,1.07422-1.48145,1.9043-2.56348,2.49023c-1.08252,0.58594-2.35596,0.87891-3.8208,0.87891h-14.4043
				c-5.56641,0-8.34961-2.52344-8.34961-7.56836V22.07031l-3.27148,0.80566l-0.36621-1.61133h-2.22168v14.77051l4.24805-1.34277
				c-0.09766,1.36719-0.09766,3.66211,0,6.88477l-14.30664,5.0293l-1.26953-7.27539l4.83398-1.36719V21.26465h-3.80859V14.5752
				h3.80859V1.3916h6.49414V14.5752h2.83203v1.63574l3.02734-0.70801V5.63965h6.49414v8.37402l4.54102-1.0498V1.29395z"/>
			<path class="st0" d="M329.9043,43.82324l-1.26953-7.03125l5.81055-1.31836v-15.9668h-5.32227v-6.68945h5.32227V1.3916h6.49414
				v11.42578h5.32227v6.68945h-5.32227v14.37988l5.56641-1.44043c-0.03271,1.33496-0.03271,3.64648,0,6.93359L329.9043,43.82324z
				 M342.64844,40.89355h6.25V11.4502h6.44531v29.44336h4.29688V1.48926h6.68945v14.0625h9.52148v6.49414h-9.52148v18.84766h10.9375
				v6.49414h-34.61914V40.89355z"/>
		</g>
	</g>
	<linearGradient id="SVGID_2_" gradientUnits="userSpaceOnUse" x1="0" y1="27.34375" x2="151" y2="27.34375">
		<stop  offset="0" style="stop-color:#FFFFFF;stop-opacity:0"/>
		<stop  offset="1" style="stop-color:#FFFFFF"/>
	</linearGradient>
	<rect y="24.84375" style="fill:url(#SVGID_2_);" width="151" height="5"/>
	<linearGradient id="SVGID_4_" gradientUnits="userSpaceOnUse" x1="494.45752" y1="-9.22371" x2="454.54248" y2="59.91121">
		<stop  offset="0" style="stop-color:#FFFFFF;stop-opacity:0"/>
		<stop  offset="1" style="stop-color:#FFFFFF"/>
	</linearGradient>
	<rect x="399" y="22.84375" style="fill:url(#SVGID_4_);" width="151" height="5"/>
</g>
</svg>
